<?xml version="1.0" encoding="UTF-8"?>
<svg width="84px" height="24px" viewBox="0 0 84 24" version="1.1" xmlns="http://www.w3.org/2000/svg" xmlns:xlink="http://www.w3.org/1999/xlink">
    <title>NFT Market</title>
    <g id="NFT--dapp" stroke="none" stroke-width="1" fill="none" fill-rule="evenodd">
        <g id="dapp-首页" transform="translate(-16.000000, -100.000000)">
            <g id="编组-3" transform="translate(0.000000, 89.000000)">
                <g id="NFT-Market" transform="translate(16.000000, 11.000000)">
                    <polygon id="路径" fill="#2D2D2D" fill-rule="nonzero" points="23 16.696 24.812 16.696 24.812 11.392 24.932 11.392 25.316 12.208 25.808 13 28.172 16.696 29.888 16.696 29.888 7.816 28.064 7.816 28.064 13.096 27.956 13.096 27.548 12.268 27.056 11.476 24.716 7.816 23 7.816"></polygon>
                    <polygon id="路径" fill="#2D2D2D" fill-rule="nonzero" points="31.184 16.696 33.248 16.696 33.248 13.312 36.164 13.312 36.164 11.584 33.248 11.584 33.248 9.532 36.5 9.532 36.5 7.816 31.184 7.816"></polygon>
                    <polygon id="路径" fill="#2D2D2D" fill-rule="nonzero" points="38.984 16.696 41.036 16.696 41.036 9.58 43.064 9.58 43.064 7.816 36.968 7.816 36.968 9.58 38.984 9.58"></polygon>
                    <polygon id="路径" fill="#2D2D2D" fill-rule="nonzero" points="46.304 16.696 48.188 16.696 48.188 10.324 48.26 10.324 48.668 11.848 50.048 16.24 51.776 16.24 52.952 12.52 53.168 11.848 53.564 10.324 53.636 10.324 53.636 16.696 55.556 16.696 55.556 7.816 52.616 7.816 51.464 11.452 51.248 12.124 50.972 13.612 50.888 13.612 50.612 12.124 49.268 7.816 46.304 7.816"></polygon>
                    <path d="M58.232,16.756 C58.904,16.756 59.54,16.42 59.936,15.916 L60.032,15.916 L60.176,16.696 L61.844,16.696 L61.844,12.184 C61.844,10.744 61.04,10.12 59.144,10.12 C58.448,10.12 57.668,10.216 56.936,10.336 L57.068,11.776 C57.464,11.692 58.472,11.608 58.82,11.608 C59.66,11.608 59.828,11.788 59.84,12.712 L58.748,12.784 C57.2,12.892 56.42,13.552 56.42,14.812 C56.42,15.964 57.152,16.756 58.232,16.756 Z M58.988,15.304 C58.616,15.304 58.412,15.052 58.412,14.632 C58.412,14.212 58.628,14.02 59.192,13.972 L59.84,13.912 L59.84,14.956 C59.576,15.112 59.24,15.304 58.988,15.304 Z" id="形状" fill="#2D2D2D" fill-rule="nonzero"></path>
                    <path d="M62.912,16.696 L64.916,16.696 L64.916,12.508 C65.072,12.304 65.636,12.04 65.984,11.98 L66.8,11.98 L66.8,10.108 L66.428,10.108 C65.828,10.348 64.904,10.972 64.796,11.176 L64.712,11.176 L64.604,10.216 L62.912,10.216 L62.912,16.696 Z" id="路径" fill="#2D2D2D" fill-rule="nonzero"></path>
                    <polygon id="路径" fill="#2D2D2D" fill-rule="nonzero" points="67.472 16.696 69.476 16.696 69.476 14.092 69.872 14.092 71.276 16.696 73.46 16.696 71.492 13.492 71.18 13.372 71.18 13.336 71.48 13.216 73.244 10.216 71.084 10.216 69.872 12.628 69.476 12.628 69.476 7 67.472 7"></polygon>
                    <path d="M76.556,16.804 C77.264,16.804 78.176,16.648 78.776,16.432 L78.716,14.968 C77.9,15.172 77.12,15.304 76.664,15.304 C75.944,15.304 75.692,15.064 75.632,14.128 L78.932,14.128 C78.98,13.864 78.992,13.684 78.992,13.204 C78.992,11.08 78.224,10.108 76.544,10.108 C74.6,10.108 73.604,11.272 73.604,13.528 C73.604,15.676 74.612,16.804 76.556,16.804 Z M76.496,11.596 C77,11.596 77.204,11.944 77.228,12.904 L75.62,12.904 C75.68,11.932 75.932,11.596 76.496,11.596 Z" id="形状" fill="#2D2D2D" fill-rule="nonzero"></path>
                    <path d="M82.472,16.768 C82.856,16.768 83.252,16.732 83.576,16.648 L83.576,15.208 C83.36,15.268 83.156,15.292 83,15.292 C82.568,15.292 82.364,15.064 82.364,14.404 L82.364,11.896 L83.564,11.896 L83.564,10.216 L82.352,10.216 L82.352,8.14 L80.732,8.332 L80.468,10.216 L79.424,10.216 L79.424,11.896 L80.348,11.896 L80.348,14.908 C80.348,16.12 81.08,16.768 82.472,16.768 Z" id="路径" fill="#2D2D2D" fill-rule="nonzero"></path>
                    <path d="M18.9843347,9.9025284 L16.0939697,7.95503065 L16.0480448,14 L12.8221918,11.8284477 L12.868139,5.78144982 L10,3.84893214 L10.0216012,1 L19,7.07058259 L18.9843347,9.9025284 Z M7.12024529,6.93384454 L7.15150537,2.95384154 L10,1 L9.93049472,9.87458008 L6.26829268,12.3864774 L3.88229056,10.0639937 L3.85103048,14.044487 L1,16 L1.08847803,7.11256056 L4.7345198,4.6116951 L7.12024529,6.93384454 Z M12.3133972,17.7764043 L9.15130296,20 L5.89121929,17.8205065 L3.95869558,19.1794488 L1,17.2098263 L9.83055377,11 L19,17.1245278 L16.1634924,19.1193196 L9.95073464,14.9658225 L9.05331349,15.5968885 L12.3133972,17.7764043 Z M19.846323,6.71966148 L10.0690904,0.0581980464 C10.0633571,0.0542900302 10.0567209,0.0526313955 10.050807,0.0491096367 C10.0450963,0.0456787621 10.0406721,0.0407028578 10.0347131,0.0375673565 C10.026542,0.033318525 10.0176035,0.0320234267 10.0092292,0.0284562259 C9.99390278,0.021935292 9.97844091,0.0160278257 9.96259531,0.0118017152 C9.94817175,0.00793914116 9.93354504,0.00534894442 9.91880547,0.00337221533 C9.90257614,0.00121371804 9.88632424,0 9.8700272,0 C9.85517477,0 9.84041263,0.00146364931 9.82565049,0.00348582045 C9.80953402,0.00568975978 9.79359813,0.00889342417 9.77784282,0.0133921869 C9.76328383,0.0175501343 9.74904084,0.022912296 9.73495586,0.0290242515 C9.72685249,0.0325460102 9.71816223,0.0338638296 9.71028458,0.038021777 C9.70308408,0.0418616301 9.69764421,0.0477918173 9.6907823,0.0520633699 C9.68428154,0.0560849911 9.67694561,0.0580617202 9.67067057,0.062537762 L0.242244361,6.79620861 C0.150827431,6.86153156 0.0960675607,6.9671616 0.0949389566,7.07992604 L0,17.0098997 C0,17.011172 0.000452222927,17.0123081 0.000452222927,17.0135805 C0.000452222927,17.0150573 0,17.0164433 0,17.0179202 C0.000384506682,17.0475711 0.00469577427,17.0765859 0.0121897054,17.1046009 C0.0137020348,17.1102357 0.0167492659,17.1152116 0.0185098882,17.1207555 C0.0259812473,17.1440219 0.0349649357,17.1667202 0.0469958552,17.187828 C0.0521422899,17.196871 0.0590042027,17.2048006 0.0649406601,17.2133437 C0.0761138406,17.2294529 0.0877610347,17.2451986 0.101530004,17.2592856 C0.109746242,17.2676924 0.1191588,17.2749404 0.128255349,17.2825292 C0.13726161,17.2900499 0.144868401,17.2989111 0.154687257,17.3055456 L9.96846405,23.9401983 C10.0275352,23.9800737 10.0954997,24 10.1634643,24 C10.2343857,24 10.3053072,23.9782333 10.3658681,23.9351542 L19.7982896,17.1982797 C19.8061672,17.1926449 19.8120811,17.1851242 19.8193945,17.1789214 C19.8287845,17.170969 19.8379939,17.1629258 19.8464358,17.15411 C19.8588053,17.1411817 19.8696174,17.1270493 19.8798199,17.1124624 C19.886727,17.1025787 19.8938146,17.0931268 19.899706,17.0826069 C19.9086896,17.0664296 19.9154161,17.0491162 19.921804,17.0316437 C19.9256413,17.0211011 19.9304491,17.0109448 19.9332932,17.0000387 C19.9388234,16.9787037 19.9411257,16.9564825 19.9426155,16.9340569 C19.9430895,16.9268998 19.9455498,16.9201971 19.945595,16.9129491 L20,7.01323983 C20.0006934,6.89568126 19.9429766,6.78543885 19.846323,6.71966148 L19.846323,6.71966148 Z" id="Fill-1" fill="#3F80F7"></path>
                </g>
            </g>
        </g>
    </g>
</svg>